<svg width="172" height="30" viewBox="0 0 172 30" fill="none" xmlns="http://www.w3.org/2000/svg">
<circle cx="15" cy="15" r="15" fill="#E35F78"/>
<path d="M15.5176 12.6439L8.62109 9.76976L15.5176 6.89648L22.4142 9.76976L15.5176 12.6439ZM8.62109 13.9784L15.2176 16.4215C15.4123 16.4936 15.6264 16.4936 15.8211 16.4215L22.4142 13.9784V12.1387L15.5176 14.6939L8.62109 12.1387V13.9784ZM8.62109 17.8094L15.2176 20.2534C15.4123 20.3255 15.6264 20.3255 15.8211 20.2534L22.4142 17.8094V15.9706L15.5176 18.5249L8.62109 15.9706V17.8094ZM8.62109 21.6379L15.2176 24.0818C15.4123 24.1539 15.6264 24.1539 15.8211 24.0818L22.4142 21.6379V19.8017L15.5176 22.3568L8.62109 19.8017V21.6379Z" fill="#F9F8FC"/>
<path d="M35.44 22V8H41.12C43.3333 8 45.14 8.62667 46.54 9.88C47.94 11.1333 48.64 12.8133 48.64 14.92C48.68 17.0267 47.98 18.74 46.54 20.06C45.1 21.38 43.3267 22.0267 41.22 22H35.44ZM39.2 19H40.96C42.2 19 43.1333 18.6533 43.76 17.96C44.4 17.2667 44.72 16.26 44.72 14.94C44.72 13.74 44.4 12.78 43.76 12.06C43.12 11.34 42.2133 10.98 41.04 10.98H39.2V19ZM59.4736 22L58.5336 19.08H53.2936L52.3136 22H48.4336L53.5136 8H58.5136L63.5736 22H59.4736ZM54.2336 16.2H57.6136L56.9536 14.12C56.7136 13.2933 56.5936 12.1467 56.5936 10.68V9.92H55.3336V10.44C55.3336 12.04 55.2003 13.2667 54.9336 14.12L54.2336 16.2ZM65.0095 22V10.88H60.4895V8H73.3495V10.88H68.8095V22H65.0095ZM81.29 22L80.35 19.08H75.11L74.13 22H70.25L75.33 8H80.33L85.39 22H81.29ZM76.05 16.2H79.43L78.77 14.12C78.53 13.2933 78.41 12.1467 78.41 10.68V9.92H77.15V10.44C77.15 12.04 77.0167 13.2667 76.75 14.12L76.05 16.2ZM85.2469 15.04C85.2202 12.9467 85.9135 11.1867 87.3269 9.76C88.7535 8.33333 90.5602 7.63333 92.7469 7.66C94.4535 7.66 95.9135 8.06667 97.1269 8.88C98.3535 9.69333 99.1669 10.78 99.5669 12.14L95.9469 13.38C95.4135 11.58 94.3269 10.68 92.6869 10.68C91.6202 10.68 90.7802 11.0667 90.1669 11.84C89.5669 12.6 89.2669 13.66 89.2669 15.02C89.2669 16.3533 89.5669 17.4 90.1669 18.16C90.7802 18.92 91.6202 19.3 92.6869 19.3C94.3002 19.3 95.4069 18.4 96.0069 16.6L99.5869 17.9C99.0935 19.2733 98.2469 20.36 97.0469 21.16C95.8602 21.9467 94.4135 22.34 92.7069 22.34C90.4669 22.34 88.6602 21.6667 87.2869 20.32C85.9269 18.9733 85.2469 17.2133 85.2469 15.04ZM101.436 22V8H112.276V10.98H105.136V13.46H110.656V16.24H105.136V19.02H112.276V22H101.436ZM114.6 22V8H119.9L125.66 18.24L126.74 17.54C126.1 16.5533 125.647 15.6667 125.38 14.88C125.113 14.08 124.98 13.1467 124.98 12.08V8H128.64V22H124.32L117.54 9.92L116.46 10.58C117.66 12.5667 118.26 14.56 118.26 16.56V22H114.6ZM134.814 22V10.88H130.294V8H143.154V10.88H138.614V22H134.814ZM144.815 22V8H155.655V10.98H148.515V13.46H154.035V16.24H148.515V19.02H155.655V22H144.815ZM157.979 22V8H165.359C166.892 8 168.092 8.32667 168.959 8.98C169.839 9.63333 170.279 10.5133 170.279 11.62C170.279 12.5267 170.039 13.22 169.559 13.7C169.119 14.14 168.592 14.44 167.979 14.6C167.366 14.76 166.592 14.86 165.659 14.9V16.08C167.059 16.1067 168.079 16.3133 168.719 16.7C169.372 17.0867 169.806 17.84 170.019 18.96L170.639 22H166.639L166.099 18.76C166.006 18.0667 165.786 17.5733 165.439 17.28C165.092 16.9867 164.566 16.84 163.859 16.84H161.699V22H157.979ZM161.699 14.12H164.479C165.066 14.12 165.532 13.98 165.879 13.7C166.226 13.42 166.399 13.0267 166.399 12.52C166.399 12.0133 166.226 11.6267 165.879 11.36C165.546 11.08 165.079 10.94 164.479 10.94H161.699V14.12Z" fill="#0C121B"/>
</svg>
